<svg width="126" height="36" viewBox="0 0 126 36" fill="none" xmlns="http://www.w3.org/2000/svg">
<g clip-path="url(#clip0_46_245)">
<path d="M88.9147 0V21.5958C88.9147 25.5417 87.543 28.8956 84.8026 31.6604C82.0946 34.4583 78.8096 35.8588 74.9448 35.8588C70.5854 35.8588 67.0208 34.1578 64.2451 30.7498C61.437 34.1548 57.8548 35.8588 53.4954 35.8588C49.6335 35.8588 46.3456 34.4613 43.6376 31.6604C40.8972 28.8956 39.5284 25.5417 39.5284 21.5958V0H46.066V21.5958C46.066 23.6875 46.793 25.4726 48.2442 26.9572C49.6983 28.4418 51.4467 29.1841 53.4954 29.1841C55.5441 29.1841 57.2925 28.4598 58.7466 27.0083C60.1978 25.5237 60.9425 23.7385 60.9749 21.6469V0H67.5124V21.6469C67.5124 23.7385 68.2395 25.5237 69.6906 27.0083C71.1447 28.4568 72.8932 29.1841 74.9418 29.1841C76.9905 29.1841 78.739 28.4418 80.1931 26.9572C81.6442 25.4756 82.3713 23.6875 82.3713 21.5958V0H88.9088H88.9147Z" fill="white"/>
<path d="M0 18.1725V35.9907H6.54343V18.1725C6.54343 15.056 7.63547 12.3813 9.81662 10.1544C11.9242 8.00267 14.5439 6.88772 17.5963 6.88772C20.5781 6.88772 23.1949 8.00267 25.3024 10.1544C27.4836 12.3813 28.5756 15.053 28.5756 18.1725V24.9283H35.0455V18.1725C35.0455 13.1988 33.3735 8.96736 29.9561 5.47826C26.4681 1.98915 22.3942 0.207031 17.5963 0.207031C12.7248 0.207031 8.58034 1.98915 5.16292 5.47826C1.7455 8.96736 0 13.1988 0 18.1725Z" fill="white"/>
<path d="M35.069 29.5381H28.5432V35.9994H35.069V29.5381Z" fill="#B3B3B3"/>
<path d="M122.98 17.701C120.928 15.6484 118.47 14.6176 115.598 14.6176H103.606C102.552 14.6176 101.639 14.2299 100.88 13.4545C100.121 12.6792 99.7409 11.7325 99.7409 10.6206C99.7409 9.50864 100.121 8.61307 100.88 7.83772C101.639 7.06236 102.552 6.67468 103.606 6.67468H121.891V0H103.606C100.733 0 98.2868 1.04583 96.2735 3.13449C95.5788 3.83772 94.996 4.58903 94.5397 5.40045C93.6479 6.94816 93.2063 8.69121 93.2063 10.6206C93.2063 12.55 93.6479 14.299 94.5397 15.8618C94.996 16.6792 95.5788 17.4395 96.2735 18.1578C98.2898 20.2164 100.733 21.2412 103.606 21.2412L115.598 21.2923C116.651 21.2923 117.564 21.6649 118.323 22.4042C119.083 23.1796 119.462 24.1262 119.462 25.2382C119.462 26.3501 119.083 27.2457 118.323 28.021C117.564 28.7964 116.651 29.1841 115.598 29.1841H92.2556C91.2931 31.5853 89.8331 33.7821 87.8874 35.7476C87.8462 35.7896 87.8109 35.8257 87.7667 35.8618H115.598C118.47 35.8618 120.928 34.837 122.98 32.7784C124.99 30.6837 126 28.1743 126 25.2412C126 22.308 124.987 19.7986 122.98 17.704V17.701Z" fill="white"/>
</g>
<defs>
<clipPath id="clip0_46_245">
<rect width="126" height="36" fill="white"/>
</clipPath>
</defs>
</svg>
